<svg clip-rule="evenodd" fill-rule="evenodd" stroke-linejoin="round" stroke-miterlimit="1.41421" viewBox="0 0 100 100" xmlns="http://www.w3.org/2000/svg"><path d="m2.407 5h92.593v90h-92.593z" fill="#00933b" transform="matrix(.539996 .539996 -.555556 .555556 51.4781 -4.07742)"/><path d="m18.141 20.305c1.078 1.266 2.447 1.899 4.107 1.899 1.626 0 2.905-.611 3.838-1.835s1.399-2.811 1.399-4.762c0-2.174-.531-3.838-1.592-4.993-1.061-1.156-2.361-1.733-3.902-1.733-1.249 0-2.353.376-3.311 1.129-1.438 1.113-2.157 2.91-2.157 5.391 0 2.003.539 3.637 1.618 4.904zm8.677-20.974c0-.599-.231-1.258-.694-1.977-.787-1.163-1.976-1.745-3.568-1.745-2.379 0-4.073 1.335-5.083 4.004-.548 1.472-.924 3.646-1.129 6.521.907-1.078 1.959-1.865 3.157-2.362 1.198-.496 2.567-.744 4.108-.744 3.303 0 6.011 1.121 8.125 3.363 2.113 2.242 3.17 5.108 3.17 8.6 0 3.474-1.035 6.537-3.106 9.19s-5.288 3.979-9.653 3.979c-4.689 0-8.146-1.959-10.371-5.879-1.729-3.063-2.593-7.016-2.593-11.86 0-2.841.12-5.151.36-6.931.427-3.166 1.258-5.802 2.49-7.907 1.061-1.797 2.451-3.243 4.171-4.339 1.72-1.095 3.778-1.642 6.174-1.642 3.458 0 6.213.885 8.267 2.657 2.053 1.771 3.209 4.128 3.465 7.072z" fill="#fff" fill-rule="nonzero" transform="matrix(1.26802 0 0 1.26802 21.9029 39.5201)"/></svg>