<?xml version="1.0" encoding="utf-8"?>
<!-- Generator: Adobe Illustrator 19.0.0, SVG Export Plug-In . SVG Version: 6.00 Build 0)  -->
<svg version="1.1" xmlns="http://www.w3.org/2000/svg" xmlns:xlink="http://www.w3.org/1999/xlink" x="0px" y="0px"
	 viewBox="0 0 842 862" style="enable-background:new 0 0 842 862;" xml:space="preserve">
<style type="text/css">
	.st0{display:none;}
	.st1{clip-path:url(#SVGID_2_);}
	.st2{clip-path:url(#SVGID_4_);}
	.st3{fill:#0039A6;stroke:#000000;stroke-width:0.9706;stroke-miterlimit:10;}
	.st4{fill:#FFFFFF;}
	.st5{fill:none;stroke:#000000;stroke-miterlimit:10;}
	.st6{display:inline;fill:#0039A6;stroke:#000000;stroke-width:0.9706;stroke-miterlimit:10;}
	.st7{display:inline;}
	.st8{display:inline;fill:#FFFFFF;}
	.st9{display:inline;fill:none;}
	.st10{fill:#FFFFFF;stroke:#000000;stroke-miterlimit:10;}
</style>
<g id="Layer_2" class="st0">
</g>
<g id="Layer_1" class="st0">
	<image style="overflow:visible;" width="768" height="844" xlink:href="MTA_NYC_logo.svg.png"  transform="matrix(1 0 0 1 37 9)">
	</image>
</g>
<g id="Layer_6">
	<g>
		<defs>
			<path id="SVGID_1_" d="M48.5,767c-15.5-179.5-36-431-36-431S6,161.5,8.5,160s142-155.5,142-155.5L537,7l285.5,236l13,178l-20,193
				l-87,208.5l-291,39.5H209L48.5,767z"/>
		</defs>
		<clipPath id="SVGID_2_">
			<use xlink:href="#SVGID_1_"  style="overflow:visible;"/>
		</clipPath>
		<g class="st1">
			<defs>
				<rect id="SVGID_3_" width="842" height="862"/>
			</defs>
			<clipPath id="SVGID_4_">
				<use xlink:href="#SVGID_3_"  style="overflow:visible;"/>
			</clipPath>
			<g class="st2">
				<ellipse class="st3" cx="384" cy="431" rx="423.5" ry="422"/>
			</g>
			<g class="st2">
				<path class="st4" d="M-39.4,180.3L61.1,197l34.4,242l44.7-228.9l79.4,13.1l38.1,197l25.5-186.5l64.3,10.6l-47.9,399.7
					l-72.5,11.7L181,421.5l-49,249.6l-94,15.2L-39.4,180.3z"/>
				<path class="st4" d="M370.7,248.2l63.1,10.8l-0.4,363.4l-62.7,10.2V248.2z"/>
				<path class="st4" d="M468.8,264.5l89.6,14.8c13.5,2.2,23.6,11.4,30.6,27.5c6.8,15.8,10.2,34.5,10.2,56.4
					c0,18.3-2.4,33.9-7.3,46.9c-3.3,8.7-8.1,15.6-14.5,20.7c9.7,5.5,16.7,14.8,21.2,27.8c4.4,12.9,6.6,29.1,6.6,48.7
					c0,16-1.6,30.5-4.7,43.6c-3.1,13.2-7.5,24-13,32.3c-3.5,5.2-8.8,9.5-16,12.8c-9.7,4.5-16.3,7-19.5,7.5l-83.1,13.4V264.5z
					 M519,404.5l20.2,0.8c7.1,0.3,11.9-2.3,14.6-7.5c2.7-5.2,4-12.9,4-23.1c0-9.4-1.3-16.9-4-22.4c-2.7-5.6-7.5-8.7-14.3-9.4
					l-20.5-2V404.5z M519,536.5l23.6-2.2c7.7-0.7,13.1-4.3,16.2-10.6c3.1-6.3,4.6-14.6,4.6-24.8c0-9.5-1.5-17.1-4.6-22.8
					c-3.1-5.7-8.5-8.5-16.4-8.3l-23.5,0.6V536.5z"/>
				<path class="st4" d="M623.8,289.9l38.4,6.5v217.9l51.6-4.2v67l-93.3,15.1L623.8,289.9z"/>
			</g>
		</g>
	</g>
</g>
<g id="Layer_8" class="st0">
	<ellipse class="st5" cx="384" cy="431" rx="423.5" ry="422"/>
</g>
<g id="Layer_7" class="st0">
	<ellipse class="st6" cx="943" cy="585" rx="423.5" ry="422"/>
	<g class="st7">
		<g>
			<path class="st4" d="M519.6,334.3L620.1,351l34.4,242l44.7-228.9l79.4,13.1l38.1,197l25.5-186.5l64.3,10.6l-47.9,399.7
				l-72.5,11.7L740,575.5l-49,249.6l-94,15.2L519.6,334.3z"/>
			<path class="st4" d="M929.7,402.2l63.1,10.8l-0.4,363.4l-62.7,10.2V402.2z"/>
			<path class="st4" d="M1027.8,418.5l89.6,14.8c13.5,2.2,23.6,11.4,30.6,27.5c6.8,15.8,10.2,34.5,10.2,56.4
				c0,18.3-2.4,33.9-7.3,46.9c-3.3,8.7-8.1,15.6-14.5,20.7c9.7,5.5,16.7,14.8,21.2,27.8c4.4,12.9,6.6,29.1,6.6,48.7
				c0,16-1.6,30.5-4.7,43.6c-3.1,13.2-7.5,24-13,32.3c-3.5,5.2-8.8,9.5-16,12.8c-9.7,4.5-16.3,7-19.5,7.5l-83.1,13.4V418.5z
				 M1078,558.5l20.2,0.8c7.1,0.3,11.9-2.3,14.6-7.5c2.7-5.2,4-12.9,4-23.1c0-9.4-1.3-16.9-4-22.4c-2.7-5.6-7.5-8.7-14.3-9.4
				l-20.5-2V558.5z M1078,690.5l23.6-2.2c7.7-0.7,13.1-4.3,16.2-10.6c3.1-6.3,4.6-14.6,4.6-24.8c0-9.5-1.5-17.1-4.6-22.8
				c-3.1-5.7-8.5-8.5-16.4-8.3l-23.5,0.6V690.5z"/>
			<path class="st4" d="M1182.8,443.9l38.4,6.5v217.9l51.6-4.2v67l-93.3,15.1L1182.8,443.9z"/>
		</g>
	</g>
	<rect x="427" y="460" class="st8" width="176.5" height="372"/>
	<path class="st9" d="M740,575.5"/>
</g>
<g id="Layer_5" class="st0">
	<g class="st7">
		<g>
			<path class="st10" d="M15.4,194.2l133.3,23.7l44.9,273l41.6-257.6l96.5,17.1v387l-58.2,10.1V336.7L224.3,656l-63.5,11
				l-59.4-346.5v356.8l-86,14.9V194.2z"/>
			<path class="st10" d="M358.8,255.1l165.4,29.4v78.9l-49.5-4.5v253.7l-54.1,9.4V354l-61.8-5.6V255.1z"/>
			<path class="st10" d="M612.9,541l-44.9,5.2l-6.6,51.4l-45.5,7.9l53.7-312.9l43.1,7.6l43.2,281l-37,6.4L612.9,541z M605.1,479
				l-13.9-105.9l-14.2,107L605.1,479z"/>
		</g>
	</g>
</g>
</svg>
