<svg clip-rule="evenodd" fill-rule="evenodd" stroke-linejoin="round" stroke-miterlimit="2" viewBox="0 0 90 90" xmlns="http://www.w3.org/2000/svg"><circle cx="45" cy="45" fill="#808183" r="45"/><g fill="#fff" fill-rule="nonzero"><path d="m60.178 24.401v7.412h6.533c1.298 0 2.271-.15 2.92-.449 1.148-.524 1.722-1.56 1.722-3.107 0-1.672-.555-2.795-1.666-3.369-.624-.325-1.56-.487-2.808-.487zm7.899-4.792c1.934.038 3.422.275 4.464.712 1.042.436 1.925 1.079 2.649 1.928.599.698 1.073 1.472 1.422 2.32.35.849.524 1.816.524 2.902 0 1.31-.33 2.598-.992 3.865-.661 1.266-1.753 2.162-3.275 2.686 1.273.511 2.174 1.238 2.705 2.18.53.943.795 2.381.795 4.315v1.853c0 1.26.05 2.115.15 2.564.15.711.499 1.235 1.048 1.572v.693h-6.345c-.175-.612-.3-1.104-.375-1.479-.149-.773-.23-1.566-.243-2.377l-.037-2.564c-.025-1.76-.347-2.933-.964-3.519-.618-.587-1.775-.88-3.472-.88h-5.953v10.819h-5.633v-27.59z"/><path d="m22.003 54.18c.304 2.192.901 3.83 1.791 4.915 1.627 1.975 4.416 2.962 8.366 2.962 2.365 0 4.286-.26 5.761-.781 2.8-.998 4.2-2.854 4.2-5.566 0-1.585-.695-2.811-2.084-3.679-1.389-.846-3.57-1.595-6.543-2.246l-5.078-1.139c-4.991-1.129-8.442-2.355-10.351-3.679-3.234-2.213-4.851-5.674-4.851-10.384 0-4.297 1.563-7.866 4.688-10.709s7.715-4.265 13.769-4.265c5.057 0 9.37 1.34 12.94 4.021 3.57 2.68 5.441 6.57 5.615 11.669h-9.635c-.174-2.886-1.433-4.937-3.776-6.152-1.563-.803-3.505-1.204-5.827-1.204-2.583 0-4.644.521-6.185 1.562-1.541 1.042-2.311 2.496-2.311 4.362 0 1.715.759 2.995 2.278 3.841.977.565 3.06 1.226 6.25 1.986l8.268 1.986c3.625.868 6.359 2.029 8.204 3.483 2.864 2.257 4.296 5.523 4.296 9.798 0 4.384-1.676 8.024-5.029 10.921s-8.089 4.346-14.209 4.346c-6.25 0-11.165-1.427-14.746-4.281-3.581-2.853-5.371-6.776-5.371-11.767z"/></g></svg>